<?xml version="1.0" standalone="no"?>
<!DOCTYPE svg PUBLIC "-//W3C//DTD SVG 20010904//EN"
 "http://www.w3.org/TR/2001/REC-SVG-20010904/DTD/svg10.dtd">
<svg version="1.0" xmlns="http://www.w3.org/2000/svg"
 width="500.000000pt" height="500.000000pt" viewBox="0 0 500.000000 500.000000"
 preserveAspectRatio="xMidYMid meet">
<metadata>
Created by potrace 1.11, written by Peter Selinger 2001-2013
</metadata>
<g transform="translate(0.000000,500.000000) scale(0.100000,-0.100000)"
fill="#000000" stroke="none">
<path d="M2335 4979 c-1069 -67 -1982 -826 -2244 -1866 -99 -391 -99 -825 0
-1216 221 -879 918 -1576 1796 -1796 392 -98 824 -98 1216 0 434 109 817 327
1143 653 204 205 347 402 474 656 255 511 321 1136 179 1703 -289 1154 -1371
1941 -2564 1866z m1397 -1003 c102 -20 167 -49 214 -97 38 -39 39 -42 39 -107
-1 -66 -17 -113 -59 -165 -14 -18 -16 -18 -53 1 -94 48 -204 74 -333 79 -145
6 -212 -5 -299 -48 -78 -39 -126 -93 -147 -166 -15 -50 -16 -69 -6 -138 22
-149 56 -200 397 -590 330 -377 391 -457 456 -601 82 -180 99 -452 43 -684
-58 -239 -232 -417 -471 -482 -103 -28 -397 -31 -510 -6 -143 33 -269 119
-291 200 -17 61 12 174 65 255 l15 23 45 -31 c182 -126 449 -154 622 -66 115
57 170 165 179 348 7 168 -29 293 -126 436 -22 32 -153 191 -293 353 -289 337
-339 401 -403 514 -68 119 -97 218 -103 351 -6 134 10 215 65 319 92 177 267
285 512 316 90 12 350 4 442 -14z m-1807 -1 c405 -86 555 -482 555 -1465 0
-969 -161 -1406 -560 -1524 -145 -43 -374 -39 -519 10 -148 50 -231 127 -311
289 -75 151 -119 333 -150 620 -18 158 -24 776 -11 960 51 698 231 1028 606
1110 83 18 303 18 390 0z"/>
<path d="M1617 3623 c-147 -49 -240 -241 -283 -585 -22 -175 -31 -851 -15
-1070 34 -443 140 -641 351 -656 290 -20 401 217 431 920 19 433 -7 891 -61
1103 -27 105 -84 211 -134 246 -77 57 -194 73 -289 42z"/>
</g>
</svg>
